<svg xmlns="http://www.w3.org/2000/svg" xml:space="preserve" width="1500" height="263" data-id="lg_3zrMC5hec1gfobmIOI" data-version="1" viewBox="0 0 1500 263"><g data-padding="20"><g transform="translate(10 4.696)scale(.96429)"><rect width="316.89" height="271.2" x="344.2" y="-136.744" fill="none" rx="0" ry="0" transform="matrix(.97 0 0 .97 406.1 132.61)"/><path fill="#fff" d="M876.276 85.95h-131.54v-33h131.54Zm-39.51 118.53h-52.52V93.83h52.52Zm182.92-118.53h-131.54v-33h131.54Zm-39.5 118.53h-52.53V93.83h52.53Zm-289.357-31.021a14.3 14.3 0 0 0 .38-3.76v-20.373c0-5.617-3.14-9.52-7.663-9.52h-12.043c-4.046 0-7.33 3.213-8.092 7.592h-24.633v-2.285c0-2.57-2.118-5.307-8.02-5.307h-10.14c-3.57 0-6.068 1.785-6.83 4.664-1.547-.142-5.854-.047-6.354 0-4.617.5-6.878 3.332-8.33 7.236-12.947-1.357-17.993 5.76-19.754 13.708a16.18 16.18 0 0 0-11.377 8.95l-13.494 4.76c-3.19-9.545-10.33-11.71-16.09-11.71h-.69a112 112 0 0 0-6.592.023c-9.83.976-16.47 9.235-17.517 21.373l-23.752 7.354a3.46 3.46 0 0 0-2.38 3.308v15.47a3.49 3.49 0 0 0 3.499 3.499h21.586c1.928 0 3.499-1.547 3.499-3.475v-2.332h2.26a16.18 16.18 0 0 0 13.52 6.735h6.854a19.75 19.75 0 0 0 13.328-7.426l20.825-.023v3.022a3.49 3.49 0 0 0 3.498 3.499h21.99c.953 0 1.834-.381 2.453-1q2.95 1.666 6.354 1.904c.453.048 8.735.048 8.806.048 5.57 0 9.663-3.903 11.567-6.188l22.039-.048a17.14 17.14 0 0 0 12.9 6.212h.047l11.543.024c12.733 0 20.968-10.663 20.968-27.156 0-9.282-2.69-15.898-4.165-18.802m-6.616-26.608v23.728c-2.952-2.475-7.045-3.736-13.876-3.736v-19.992c.762.095 13.876 0 13.876 0m-17.447 7.543h.072v6.997s-31.845.024-31.988.072c-1.428-1.095-5.57-4.046-8.092-5.974l2.928-1.071Zm.072 10.496v1.975h-2.975c-6.212 0-10.425 4.808-10.591 4.998-2.5-.285-13.447-6.568-13.852-6.973Zm-46.648-18.088c.023 0 11.28 0 11.566.048v4.07h-2.38c-.19 0-6.735 2.356-6.735 2.356l-2.475-1.238Zm-12.781 4.665c2.618-.476 3.38.476 4.213 2.237 1.38 2.927 2.499 10.9 3.022 15.47h-7.14c-.285-4.95-1.19-8.568-2.856-11.186.072-.238 1.904-6.378 2.76-6.521m-3.38 18.254a16.18 16.18 0 0 0-9.066 6.712H584.49c-.357-4.046 0-5.212.166-5.331h10.068c2.784 0 4.95-2.047 4.95-4.665v-1.095c0-3.237-1.928-5.355-4.95-5.355h-4.38c1.428-1.142 3.047-1.832 4.522-1.832 8.64 0 8.95 7.33 9.163 11.566m-9.282-6.235c.69 0 1.428.143 1.428 1.856v1.095c0 .857-.856 1.166-1.428 1.166h-8.662q.357-2.26 1.404-4.117Zm-14.042 8.806q.072 2.356.262 4.141h-6.188a9.52 9.52 0 0 1 5.903-4.165m-49.076 2.118c.619-.047 6.735 0 6.735 0 4.142 0 9.378 3.19 10.425 10.639l-3.332 1.475c-.405-2.594-1.81-6.33-4.522-6.33-3.832 0-5.236 6.497-5.236 10.852 0 .048-5.712 3.404-6.022 3.666l-10.33.047c-.023-2.737.215-19.397 12.282-20.349m10.472 13.661-2.832 1.333c-.048-2.07.476-5.379 1.547-5.617.833-.19 1.26 2.666 1.26 4.213Zm-35.82 9.973-11.828 7.474v-3.499Zm2.786 13.47h-14.59v-2.403l14.613.047Zm-8.307-5.854 11.686-7.378h13.328c-2.523 1.499-5.521 3.95-5.545 7.425Zm37.462 6.806-6.426-.047c-4.07 0-10.782-4.356-6.855-8.235 9.282-9.187 39.104-22.015 47.72-24.205h20.396q-2.285 5.236-2.333 12.305v.048l-6.045 2.522c-.143-.047-27.394-.047-27.394-.047a1.67 1.67 0 0 0-1.094.357l-15.137 11.947a1.761 1.761 0 0 0 1.07 3.118h1.667a11.9 11.9 0 0 1-5.57 2.237m11.282-7.568 8.377-6.616h18.898a1.67 1.67 0 0 0-.5 1.237v5.45s-26.49-.142-26.775-.071m30.273-4.236 14.804-6.165v17.017h-14.756Zm36.176 11.78h-8.377c-8.045-1.094-8.854-4.212-9.496-5.164v-15.399a1.737 1.737 0 0 0-2.428-1.618l-1.428.595c.428-10.472 5.284-17.374 12.852-18.112l6.83-.047c8.093 0 12.567 11.59 12.567 19.587 0 13.114-6.76 20.182-10.52 20.182m11.496-6.188a38.1 38.1 0 0 0 2.523-13.97c0-7.973-3.76-19.23-11.734-22.3-.285-2.857-1.31-11.663-2.927-16.328 8.877 2.856 14.613 9.163 22.92 14.661 6.378 4.213 11.66 6.664 12.566 6.783q-1.428 2.285-2.452 4.998l-11.686-.428a1.76 1.76 0 0 0-1.808 1.737l.023 24.824Zm10.9-23.014 8.925.31c-2.427 6.306-1.594 18.516 1.833 22.68h-10.71Zm35.676 29.226-11.59-.047c-5.427 0-12.733-8.45-12.733-20.135 0-12.376 7.878-21.849 14.09-21.849l9.638-.071c7.616 0 14.566 6.878 14.566 21.92 0 3.38-.666 20.182-13.97 20.182m5.164-33.034c-4.213 0-7.402 5.64-7.402 13.137s3.19 13.09 7.378 13.09c4.094 0 6.736-5.14 6.736-13.09s-2.618-13.137-6.712-13.137m0 22.753c-1.595 0-3.903-3.76-3.903-9.616 0-5.878 2.308-9.639 3.903-9.639 1.547 0 3.213 3.88 3.213 9.64s-1.666 9.615-3.213 9.615m-62.713-22.777c-3.975 0-6.973 5.64-6.973 13.138 0 7.497 2.998 13.09 6.973 13.09s6.973-5.617 6.973-13.09-2.998-13.138-6.973-13.138m0 22.753c-1.38 0-3.475-3.832-3.475-9.615s2.095-9.64 3.475-9.64 3.475 3.856 3.475 9.64c0 5.783-2.07 9.615-3.475 9.615m-85.3-91.416q1.048 1.047 2.476 1.047c.952 0 1.26-.404 1.88-1.047.857-.952 4.594-11.662 8.663-13.9 17.493-9.52 23.467-23.157 24.467-24.49l17.92 17.709-20.3 20.063c-1.357 1.357-1.428 3.618-.024 4.927 1.119 1.07 3.284 1.428 4.95.047l20.35-20.134 20.372 20.134c2.214 1.547 4.26.643 4.95-.047 1.357-1.357 1.333-3.57-.047-4.927l-20.3-20.063 17.945-17.731c1 1.333 9.09 16.017 24.442 24.514 4.046 2.237 6.545 9.591 7.14 12.233a3.499 3.499 0 0 0 5.903 1.69l32.487-32.487a3.5 3.5 0 0 0 0-4.95 124 124 0 0 0-18.778-13.138c-12.067-7.045-18.445-22.277-18.97-23.372a3.5 3.5 0 0 0-4.688-1.57c-.5.237-50.456 49.908-50.456 49.908s-49.908-49.623-50.432-49.885a3.5 3.5 0 0 0-4.688 1.571c-.548 1.071-7.783 16.374-18.97 23.372a186 186 0 0 0-18.801 13.137 3.52 3.52 0 0 0 0 4.95Zm103.15-58.12a47.6 47.6 0 0 0 7.092 11.234l-7.687 7.687a90.4 90.4 0 0 1-6.902-11.424Zm5.117 2.38V47.51l.714-.714v9.401q-.38-.595-.714-1.237m-1.166-2.166c-.381-.762-1.31-2.856-1.31-2.856l1.31-1.285Zm9.306 4.855-.714.69v-6.33l.714.928Zm1.166-3.237.904 1.143-.904.904Zm24.3 25.371-.714.714V72.5l.714.5Zm1.166-5.926.642.5v3.617l-.642.643Zm-3.023 7.806-.071.048-.643-.524v-9.972l.714.476Zm-1.856-1.428-.714-.523v-9.71l.714.451Zm-1.88-1.404-.69-.524V69.12l.166-.167.524.333Zm-2.547-1.833v-6.021l.714-.714v7.211Zm-1.19-.785-.666-.476v-2.904l.69-.69Zm-1.833-1.214-.618-.38.618-.62Zm6.736 9.21-9.044 9.045a42.8 42.8 0 0 0-8.64-8.33l7.783-7.759a83 83 0 0 1 9.925 7.045m-15.708 6.9v8.806l-.714.714V90.492Zm1.142 1.19q.38.31.666.642v5.165l-.666.666Zm1.833 1.975q.69.81 1.19 1.476l-1.19 1.19Zm-.714-18.492v-.714q.19.142.428.238Zm-1.19 1.19-.643.618V74.07l.405.238.238.143Zm-1.81 1.785-.642.666v-6.45l.643.381Zm-1.831 1.832-.69.69v-9.639l.714.476Zm-1.856 1.857-.5.5-.19-.096V70.143l.714.571Zm-1.857-.262-.714-.405V68.5l.714.666Zm-5.664 7.782a54.7 54.7 0 0 1-12.043-8.734l4.689-4.665c3.617 3.76 11.233 8.568 11.828 8.925Zm-17.683-26.322.69-.714v11.662l-.714-1.262Zm1.856 1.142.714 1.309V77.52q-.38-.476-.714-1.023Zm6.117 9.163-.524.547v-1.213q.238.38.524.666m-1.69 1.714-.714.714V70.88l.714.928Zm-1.88 1.856-.714.738.023-.095V68.12l.714 1.071Zm17.088-10.139V81.09l-.714-.405V66.692Zm-1.856-.119V79.95l-.714-.5V67.953Zm-1.88 11.329-.715-.595.024-.095V69.81l.714-.714Zm-1.857-1.547-.714-.595v-4.784l.714-.69Zm-1.856-1.714-1.262-1.237 1.262-1.262Zm8.4-15.827-.713.69V49.176l.714 1.071Zm-23.61 11.758-.69-1.119v-4.641l.69-.666Zm-1.831-2.833-.714-.952v-.119l.714-.714Zm23.728 23.443 1.428-1.428v2.69q-.666-.714-1.428-1.262m2.618 2.5v-5.118l.69-.69v6.688Zm1.857 2.546v-9.449l.714.548v10.067Zm1.856 3.38V88.92l.714.524v12.352h-.047Zm25.704-23.491v-1.523l.833.69Zm-12.257-9.663-5.617 5.617a45.2 45.2 0 0 1-11.947-8.806l5.76-5.831a78.5 78.5 0 0 0 11.78 8.996m-19.92-20.015v14.184l-.714-.88V45.772Zm-1.881-2.214v14.02l-.69-1.023V45.581ZM533.44 55.53l.928-1.095v2.023Zm2.07-2.57.714-.976v6.33l-.714-.714Zm20.778 7.116c-.334 2.308-4.332 8.282-6.902 11.376l-7.712-7.687a47.6 47.6 0 0 0 7.093-11.186Zm-14.162 29.869-4.451-4.451c.595-.357 8.187-5.188 11.829-8.949l4.664 4.689a54.7 54.7 0 0 1-12.042 8.734m-2.19-44.077v14.518l-.714.88V47.247Zm1.856-.286v12.329l-.69.952V44.915Zm5.236 28.489-1.237 1.214v-2.476Zm-2.38 2.356-.714.595v-6.069l.69.714v4.736m-1.856 1.547-.714.595v-9.472l.69.714v8.163m-2.618 1.952V67.239l.714.69v11.496Zm-1.14-13.257v13.995l-.714.404V67.406Zm17.065 1.333V78.14l.047.095-.714-.714v-8.378Zm-1.857 8.33-.714-.714v-3.88l.714-.951Zm-1.856-1.856-.548-.548q.238-.333.548-.642Zm4.879 3.046V66.097l.714-1.428v11.805Zm1.88-14.59.69.69v9.687l-.714 1.238Zm1.856 1.857.667.666v4.665q-.381.548-.667 1.119Zm1.833 1.833.714.714v.119l-.714.952Zm-16.923-16.184q-.523 1.166-1.095 2.26v-4.07l1.31 1.286Zm-2.237 4.498-.714 1.118v-9.282l.714.69Zm-5.593-5.712V60.17l-.714-.714V50.27Zm-.904 32.534-.714.381V69.12l.714-.643Zm-1.88 1.071-.167.096-.524-.5V70.69l.714-.595Zm-1.857-1.57-.69-.714v-8.45l.714-.475Zm-1.856-1.858-.643-.642v-5.403l.643-.38Zm-1.81-1.832-.666-.643v-2.499l.238-.143.429-.238Zm-1.832-1.81-.452-.475.476-.238Zm4.213 9.164a42.8 42.8 0 0 0-8.64 8.306l-9.044-9.044a86 86 0 0 1 9.925-7.021Zm-3.76 7.973.642-.667v6.522l-.643-.667Zm-1.19 4.046-1.19-1.214 1.19-1.5Zm2.998-5.855.714-.643v10.163l-.714-.714Zm-12.71-13.636v-7.188l.715.714v5.998Zm3.738-2.476v-1l.595.62Zm-1.167.738-.714.476v-4.07l.714.714Zm-3.903-6.783.167.167v9.187l-.69.523v-9.544Zm-1.666 10.758-.714.523v-9.78l.714-.453Zm-1.88 1.475-.643.524-.047-.071V71.69l.714-.476Zm-1.856-.714-.714-.69v-6.783l.714-.476Zm-1.857-1.856-.666-.643v-3.617l.666-.476Zm23.158 23.181V89.421l.714-.571v11.424Zm1.856-3.713V87.97l.714-.5v9.424Zm1.88-2.832v-6.64l.69.714v5.093Zm1.857-2.142v-2.69l1.428 1.429Zm-6.545-34.962 5.783 5.807c-4.046 5.355-11.067 8.306-11.971 8.806l-5.617-5.617c.476-.238 8.02-5.069 11.78-8.996M506.999 75.26v1.523l-.833-.857Z"/></g><path fill="transparent" stroke="transparent" d="M470 0h560v263H470z"/></g></svg>